<svg xmlns="http://www.w3.org/2000/svg" viewBox="0 0 240 240" fill="none" role="img" aria-label="Міжнародна Академія Козацтва">
  <defs>
    <path id="topArc" d="M 42 118 A 78 78 0 0 1 198 118" fill="none"/>
    <path id="bottomArc" d="M 198 122 A 78 78 0 0 1 42 122" fill="none"/>
  </defs>

  <circle cx="120" cy="120" r="112" fill="#0057B7" stroke="#FFD700" stroke-width="6"/>
  <circle cx="120" cy="120" r="96" fill="none" stroke="#FFD700" stroke-width="3"/>

  <text fill="#FFD700" font-family="Arial, Helvetica, sans-serif" font-size="11" font-weight="700" letter-spacing="0.8">
    <textPath href="#topArc" startOffset="50%" text-anchor="middle">МІЖНАРОДНА АКАДЕМІЯ КОЗАЦТВА</textPath>
  </text>
  <text fill="#FFD700" font-family="Arial, Helvetica, sans-serif" font-size="8.5" font-weight="700" letter-spacing="0.5">
    <textPath href="#bottomArc" startOffset="50%" text-anchor="middle">INTERNATIONAL ACADEMY OF COSSACKS</textPath>
  </text>

  <circle cx="42" cy="120" r="4" fill="#FFD700"/>
  <circle cx="198" cy="120" r="4" fill="#FFD700"/>

  <g fill="#FFD700" transform="translate(120 78)">
    <path d="M0-22 C2-18 3-12 4-6 L10-6 C8-2 5 2 3 6 L6 16 L0 10 L-6 16 L-3 6 C-5 2 -8 -2 -10 -6 L-4 -6 C-3 -12 -2 -18 0 -22 Z"/>
    <path d="M-3 10 L3 10 L2 20 L-2 20 Z"/>
  </g>

  <g fill="none" stroke="#FFD700" stroke-width="3.5" stroke-linecap="round" stroke-linejoin="round">
    <path d="M82 104 C90 90 104 84 120 86 C104 84 90 90 82 104 Z"/>
    <path d="M158 104 C150 90 136 84 120 86 C136 84 150 90 158 104 Z"/>
    <path d="M86 106 C94 112 104 118 112 124"/>
    <path d="M154 106 C146 112 136 118 128 124"/>
  </g>
  <circle cx="86" cy="106" r="4" fill="#FFD700"/>
  <circle cx="154" cy="106" r="4" fill="#FFD700"/>

  <line x1="92" y1="136" x2="148" y2="136" stroke="#FFD700" stroke-width="2"/>
  <path d="M120 130 L124 140 L116 140 Z" fill="#FFD700"/>

  <text x="120" y="168" text-anchor="middle" fill="#FFD700" font-family="Georgia, 'Times New Roman', serif" font-size="34" font-weight="700" letter-spacing="4">МАК</text>
</svg>
